<svg xmlns="http://www.w3.org/2000/svg" xmlns:xlink="http://www.w3.org/1999/xlink" id="Layer_1" x="0" y="0" enable-background="new 0 0 220 140" version="1.1" viewBox="0 0 220 140" xml:space="preserve"><style type="text/css">.st0{fill:#efd09e}.st1{fill:#d8ae64}.st5{fill:#2a4758}.st32{fill:#375868}.st33{fill:none;stroke:#375868;stroke-width:5;stroke-miterlimit:10}</style><path id="XMLID_2187_" d="M72.5,125h75.9c11.1-10,18-25,18-41.3c0-30.9-25-56-55.9-56c-30.9,0-55.9,25.2-55.9,56.1	C54.6,100,61.5,115,72.5,125z" class="st0"/><path id="XMLID_2186_" d="M82,89l0,6H67V82H54.6c0,1-0.1,1.4-0.1,2.2c0,16.2,6.9,30.8,18,40.8h7.7H95V89H82z" class="st1"/><path id="XMLID_2185_" d="M153,89v6h-11h-4V82h-12v43h13.4h9.1c10-9,16.7-22,17.8-36H153z" class="st1"/><polygon id="XMLID_2184_" points="117 41 117 36 104 36 104 41 101 41 101 125 120 125 120 41" class="st32"/><line id="XMLID_2183_" x1="110.5" x2="110.5" y1="36" y2="16" class="st33"/><polygon id="XMLID_2182_" points="104 69 104 51 98 51 98 69 95 69 95 125 98.1 125 104.1 125 107 125 107 69" class="st32"/><polygon id="XMLID_2181_" points="123 69 123 51 117 51 117 69 114 69 114 125 117 125 122.9 125 126 125 126 69" class="st32"/><polygon id="XMLID_827_" points="117 69 117 62.8 104 49.9 104 69 107 69 107 125 114 125 114 69" class="st5"/></svg>