<svg xmlns="http://www.w3.org/2000/svg" xmlns:xlink="http://www.w3.org/1999/xlink" id="Layer_1" x="0" y="0" enable-background="new 0 0 220 140" version="1.1" viewBox="0 0 220 140" xml:space="preserve"><style type="text/css">.st1{fill:#d8ae64}.st5{fill:#2a4758}.st28{fill:none;stroke:#d8ae64;stroke-miterlimit:10}.st28,.st29{stroke-width:5}.st29,.st84{fill:none;stroke-miterlimit:10}.st29{stroke:#2a4758}.st84{stroke:#f95a61;stroke-width:4;stroke-linecap:square}.st85{opacity:.35;fill:#2a4758}</style><g><path id="XMLID_2076_" d="M136.3,48.6c6.7,6.7,10.9,16,10.9,26.3" class="st28"/><path id="XMLID_2075_" d="M72.8,75c0-10.3,4.2-19.6,10.9-26.3" class="st28"/><path id="XMLID_2074_" d="M86.6,103.9C78.2,97.1,72.8,86.6,72.8,75" class="st29"/><path id="XMLID_2073_" d="M147.2,75c0,11.3-5,21.4-13,28.3" class="st29"/><g id="XMLID_1024_"><line id="XMLID_2072_" x1="109" x2="109" y1="17" y2="14" class="st84"/><line id="XMLID_2071_" x1="109" x2="109" y1="63" y2="60" class="st84"/><line id="XMLID_2062_" x1="94.5" x2="92.3" y1="23.1" y2="20.9" class="st84"/><line id="XMLID_2028_" x1="127.6" x2="125.4" y1="56.2" y2="54" class="st84"/><line id="XMLID_2027_" x1="125.4" x2="127.6" y1="23.1" y2="20.9" class="st84"/><line id="XMLID_2026_" x1="92.3" x2="94.5" y1="56.2" y2="54" class="st84"/><line id="XMLID_2025_" x1="132" x2="135" y1="39" y2="39" class="st84"/><line id="XMLID_1028_" x1="86" x2="89" y1="39" y2="39" class="st84"/></g><circle id="XMLID_5_" cx="110" cy="39" r="17.1" class="st1"/><path d="M111.6,91.8c-0.5,0-1.1-0.1-1.6-0.1c-9.4,0-17.1,7.7-17.1,17.1c0,9.4,7.7,17.1,17.1,17.1c0.3,0,0.6,0,0.9,0 c-2.3-0.5-7.6-7.4-7.6-16.8C103.3,99.9,109.2,92.6,111.6,91.8z" class="st85"/><path d="M111.6,91.8c-2.4,0.8-8.3,8.1-8.3,17.3c0,9.4,5.3,16.3,7.6,16.8c9-0.5,16.2-7.9,16.2-17.1 C127.1,99.9,120.3,92.6,111.6,91.8z" class="st5"/></g></svg>