<svg xmlns="http://www.w3.org/2000/svg" xmlns:xlink="http://www.w3.org/1999/xlink" id="Layer_1" x="0" y="0" enable-background="new 0 0 220 140" version="1.1" viewBox="0 0 220 140" xml:space="preserve"><style type="text/css">.st1{fill:#d8ae64}.st16{fill:#f95a61}.st20{fill:#a05258}.st29{fill:none;stroke:#2a4758;stroke-width:5;stroke-miterlimit:10}</style><g><line id="XMLID_1055_" x1="93.6" x2="84.1" y1="84.7" y2="122.4" class="st29"/><line id="XMLID_1054_" x1="125.5" x2="134.8" y1="84.7" y2="122.4" class="st29"/><line id="XMLID_1032_" x1="88.3" x2="129.5" y1="101.6" y2="101.6" class="st29"/><path d="M139.1,74.9l-3.9-5.4c-1.2-2.3-1.9-4.8-2.1-7.3l-3.8-36.3c-0.8-4.8-5-8.3-9.9-8.3h-19.1 c-4.9,0-9.1,3.4-9.9,8.3l-3.9,36.6c-0.2,2.6-1,5.1-2.2,7.4L80.7,75c-0.3,0.4-0.5,1-0.4,1.6c0.5,4.7,4.4,8.7,9.3,8.7h40.8 c4.8,0,8.8-3.9,9.3-8.6C139.7,76,139.5,75.4,139.1,74.9z M101.5,48.3c-0.1,1.6-1.4,2.8-3,2.7c-1.6-0.1-2.8-1.4-2.7-3l0.6-12.7 c0.1-1.6,1.4-2.8,3-2.7l0,0c1.6,0.1,2.8,1.4,2.7,3L101.5,48.3z M112.9,48.5c0,1.6-1.3,2.9-2.9,2.9h0c-1.6,0-2.9-1.3-2.9-2.9V35.8 c0-1.6,1.3-2.9,2.9-2.9h0c1.6,0,2.9,1.3,2.9,2.9V48.5z M121.4,51c-1.6,0.1-2.9-1.2-3-2.7l-0.6-12.7c-0.1-1.6,1.2-2.9,2.7-3 c1.6-0.1,2.9,1.2,3,2.7l0.6,12.7C124.2,49.6,123,51,121.4,51z" class="st16"/><path id="XMLID_1031_" d="M75.4,63.8V83c0,1.2,0.2,2.3,0.5,3.4c1,3.1,4.3,5.2,8,5.3l8,0" class="st29"/><path id="XMLID_1030_" d="M133.6,64.6c0.4,1.8,1,3.6,1.9,5.3c0,0-8,5.7-25,5.7h-1c-17,0-25-5.7-25-5.7 c0.9-1.7,1.5-3.4,1.9-5.3" class="st20"/><path id="XMLID_1029_" d="M67.6,57.4v-3.4h84.9v3.4c0,5.2-2.4,9.3-7.9,9.3H75.3C69.8,66.7,67.6,62.5,67.6,57.4z" class="st1"/></g></svg>