<svg xmlns="http://www.w3.org/2000/svg" xmlns:xlink="http://www.w3.org/1999/xlink" id="Layer_1" x="0" y="0" enable-background="new 0 0 220 140" version="1.1" viewBox="0 0 220 140" xml:space="preserve"><style type="text/css">.st0{fill:#efd09e}.st1{fill:#d8ae64}.st5{fill:#2a4758}.st16{fill:#f95a61}.st26,.st86{fill:none;stroke:#d8ae64;stroke-width:4;stroke-miterlimit:10}.st86{stroke:#f95a61}.st87{opacity:.5;fill:#fff}</style><polyline id="XMLID_2238_" points="93.1 59 93.1 71 72.6 71 72.6 59" class="st5"/><polyline id="XMLID_2237_" points="148.4 59 148.4 71 127.9 71 127.9 59" class="st1"/><circle id="XMLID_2236_" cx="55.2" cy="58.8" r="10.2" class="st0"/><path id="XMLID_2234_" d="M45,58.8l6-6.2c0,0,5.3,6.2,14.5,6.2c0-5.6-4.6-10.2-10.2-10.2S45,53.2,45,58.8z" class="st1"/><circle id="XMLID_2233_" cx="82.8" cy="58.8" r="10.2" class="st0"/><path id="XMLID_2231_" d="M72.6,58.8l6-6.2c0,0,5.3,6.2,14.5,6.2c0-5.6-4.6-10.2-10.2-10.2	C77.2,48.6,72.6,53.2,72.6,58.8z" class="st5"/><circle id="XMLID_2230_" cx="110.5" cy="58.8" r="10.2" class="st1"/><path id="XMLID_2228_" d="M100.3,58.8l6-6.2c0,0,5.3,6.2,14.5,6.2c0-5.6-4.6-10.2-10.2-10.2S100.3,53.2,100.3,58.8z" class="st16"/><circle id="XMLID_2227_" cx="51.4" cy="46.7" r="5.1" class="st1"/><circle id="XMLID_2226_" cx="106.7" cy="46.7" r="5.1" class="st16"/><circle id="XMLID_2225_" cx="138.2" cy="58.8" r="10.2" class="st0"/><path id="XMLID_2223_" d="M127.9,58.8l6-6.2c0,0,5.3,6.2,14.5,6.2c0-5.6-4.6-10.2-10.2-10.2	C132.5,48.6,127.9,53.2,127.9,58.8z" class="st1"/><circle id="XMLID_2222_" cx="165.8" cy="58.8" r="10.2" class="st1"/><path id="XMLID_2220_" d="M155.6,58.8l6-6.2c0,0,5.3,6.2,14.5,6.2c0-5.6-4.6-10.2-10.2-10.2	C160.2,48.6,155.6,53.2,155.6,58.8z" class="st5"/><circle id="XMLID_2219_" cx="162" cy="46.7" r="5.1" class="st5"/><path id="XMLID_2218_" d="M176.6,77.1l-7.9,21.3h-5.8L155,77.1c0,0,2.5-4.2,11-4.2C174.5,72.9,176.6,77.1,176.6,77.1z" class="st5"/><path id="XMLID_2217_" d="M149,77.1l-7.9,21.3h-5.8l-7.9-21.3c0,0,2.5-4.2,11-4.2S149,77.1,149,77.1z" class="st1"/><path id="XMLID_2216_" d="M121.3,77.1l-7.9,21.3h-5.8l-7.9-21.3c0,0,2.5-4.2,11-4.2S121.3,77.1,121.3,77.1z" class="st16"/><path id="XMLID_2215_" d="M93.7,77.1l-7.9,21.3h-5.8L72,77.1c0,0,2.5-4.2,11-4.2S93.7,77.1,93.7,77.1z" class="st5"/><path id="XMLID_1223_" d="M66,77.1l-7.9,21.3h-5.8l-7.9-21.3c0,0,2.5-4.2,11-4.2S66,77.1,66,77.1z" class="st1"/><polyline points="48.1 72.9 55.2 84.2 62.6 72.9" class="st86"/><circle cx="55.2" cy="84.2" r="4.4" class="st0"/><polyline points="75.7 72.9 82.8 84.2 90.2 72.9" class="st26"/><circle cx="82.8" cy="84.2" r="4.4" class="st0"/><polyline points="103.4 72.9 110.5 84.2 117.9 72.9" class="st26"/><circle cx="110.5" cy="84.2" r="4.4" class="st0"/><polyline points="131.1 72.9 138.2 84.2 145.5 72.9" class="st86"/><circle cx="138.2" cy="84.2" r="4.4" class="st0"/><polyline points="158.7 72.9 165.8 84.2 173.2 72.9" class="st26"/><circle cx="165.8" cy="84.2" r="4.4" class="st0"/><path d="M58.3,81.1c-1.7-1.7-4.5-1.7-6.2,0c-1.7,1.7-1.7,4.5,0,6.2" class="st87"/><path d="M107.4,87.3c-1.7-1.7-1.7-4.5,0-6.2c1.7-1.7,4.5-1.7,6.2,0" class="st87"/><path d="M79.8,87.3c-1.7-1.7-1.7-4.5,0-6.2c1.7-1.7,4.5-1.7,6.2,0" class="st87"/><path d="M135.1,87.3c-1.7-1.7-1.7-4.5,0-6.2c1.7-1.7,4.5-1.7,6.2,0" class="st87"/><path d="M162.7,87.3c-1.7-1.7-1.7-4.5,0-6.2c1.7-1.7,4.5-1.7,6.2,0" class="st87"/></svg>