<svg xmlns="http://www.w3.org/2000/svg" xmlns:xlink="http://www.w3.org/1999/xlink" id="Layer_1" x="0" y="0" enable-background="new 0 0 68 100" version="1.1" viewBox="0 0 68 100" xml:space="preserve"><style type="text/css">.st1{fill:#d8ae64}.st16{fill:#f95a61}.st20{fill:#a05258}.st83{fill:none;stroke:#d8ae64;stroke-width:2;stroke-linecap:round;stroke-linejoin:round;stroke-miterlimit:10}</style><line id="XMLID_2674_" x1="25.2" x2="34.4" y1="48.3" y2="89.5" class="st83"/><polyline id="XMLID_2673_" points="34.5 60.7 34.4 89.5 45.4 41.5" class="st83"/><path id="XMLID_2672_" d="M2.4,29.3c2.1,9.2,21.8,19,21.8,19s13.5-17.4,11.4-26.6C33.5,12.5,24.4,6.7,15.2,8.8	S0.3,20.1,2.4,29.3z" class="st1"/><path id="XMLID_2671_" d="M65.9,21c-1.4,9.3-20.4,20.5-20.4,20.5S30.7,25.1,32.2,15.8C33.6,6.5,42.3,0.1,51.6,1.6	S67.3,11.7,65.9,21z" class="st20"/><path id="XMLID_2670_" d="M51.6,37.5c-0.4,9.6-19.4,25-17.3,23.2c0,0-16.9-14.1-16.8-23.5c0.1-9.4,7.8-17,17.2-16.9	C44.1,20.4,51.9,28.1,51.6,37.5z" class="st16"/><path id="XMLID_2675_" d="M33,98.8h2.9c1.6,0,2.8-1.3,2.8-2.8v-1.7c0-1.6-2.3-4.8-3.8-4.8H34c-1.6,0-3.8,3.3-3.8,4.8V96	C30.1,97.5,31.4,98.8,33,98.8z" class="st1"/></svg>