<svg xmlns="http://www.w3.org/2000/svg" xmlns:xlink="http://www.w3.org/1999/xlink" id="Layer_1" x="0" y="0" enable-background="new 0 0 220 140" version="1.1" viewBox="0 0 220 140" xml:space="preserve"><style type="text/css">.st0{fill:#efd09e}.st1{fill:#d8ae64}.st5{fill:#2a4758}.st16{fill:#f95a61}</style><g><polygon id="XMLID_2211_" points="80.3 60.5 71.5 68.9 61.4 67.7 71.3 73.9 83.1 65.2" class="st0"/><polygon id="XMLID_2210_" points="93.5 63.3 102.5 71.6 99.5 80.9 108.8 70.2 98 60.2" class="st0"/><polyline id="XMLID_2209_" points="98.2 43.8 98.2 55 80.8 55 80.8 43.8" class="st1"/><path id="XMLID_2208_" d="M98.8,60.5L92,78.6h-5l-6.7-18.1c0,0,2.1-3.6,9.4-3.6C97,56.9,98.8,60.5,98.8,60.5z" class="st1"/><path id="XMLID_2207_" d="M99.2,82.4l1.3,31.1L89.8,87h0L79,113.5l1.3-31.1c0,0,2.3-5.1,9.4-5.1 C97,77.3,99.2,82.4,99.2,82.4z" class="st1"/><circle id="XMLID_2206_" cx="89.5" cy="44.1" r="8.7" class="st0"/><g id="XMLID_2205_"><rect width="3" height="70" x="57" y="43" class="st0"/></g><path id="XMLID_2202_" d="M80.8,44.1l5.1-5.3c0,0,4.5,5.3,12.3,5.3c0-4.8-3.9-8.7-8.7-8.7S80.8,39.3,80.8,44.1z" class="st1"/><polygon id="XMLID_2201_" points="131.1 63.3 122.1 71.6 125.2 80.9 115.9 70.2 126.7 60.2" class="st1"/><g id="XMLID_2200_"><rect width="3.1" height="70.2" x="164.2" y="42.8" class="st0"/></g><polygon id="XMLID_2199_" points="188 53.3 164.2 54.5 164.2 42.3 188 41.1 182.9 47" class="st16"/><polygon id="XMLID_7_" points="36.3 53.3 60.1 54.5 60.1 42.3 36.3 41.1 41.4 47" class="st16"/><polygon id="XMLID_2198_" points="144.2 60.5 153.1 68.9 163.2 67.7 153.3 73.9 141.5 65.2" class="st1"/><path id="XMLID_2197_" d="M125.8,60.5l6.7,18.1h5l6.7-18.1c0,0-2.1-3.6-9.4-3.6C127.6,56.9,125.8,60.5,125.8,60.5z" class="st5"/><path id="XMLID_2196_" d="M125.3,82.4l-1.3,31.1L134.8,87h0l10.7,26.5l-1.3-31.1c0,0-2.3-5.1-9.4-5.1 C127.6,77.3,125.3,82.4,125.3,82.4z" class="st5"/><circle id="XMLID_2195_" cx="135" cy="44.1" r="8.7" class="st1"/><path id="XMLID_2193_" d="M126.3,44.1l5.1-5.3c0,0,4.5,5.3,12.3,5.3c0-4.8-3.9-8.7-8.7-8.7S126.3,39.3,126.3,44.1z" class="st5"/><circle id="XMLID_1010_" cx="131" cy="32.9" r="4.4" class="st5"/></g></svg>