<svg xmlns="http://www.w3.org/2000/svg" xmlns:xlink="http://www.w3.org/1999/xlink" id="Layer_1" x="0" y="0" enable-background="new 0 0 68 100" version="1.1" viewBox="0 0 68 100" xml:space="preserve"><style type="text/css">.st1{fill:#d8ae64}.st16{fill:#f95a61}.st20{fill:#a05258}.st83{fill:none;stroke:#d8ae64;stroke-width:2;stroke-linecap:round;stroke-linejoin:round;stroke-miterlimit:10}</style><line id="XMLID_2681_" x1="42.8" x2="33.6" y1="48.3" y2="89.5" class="st83"/><polyline id="XMLID_2680_" points="33.5 60.8 33.6 89.5 22.5 41.5" class="st83"/><path id="XMLID_2679_" d="M65.6,29.3c-2.1,9.2-21.8,19-21.8,19S30.3,30.8,32.4,21.7S43.6,6.8,52.8,8.9	S67.7,20.1,65.6,29.3z" class="st1"/><path id="XMLID_2678_" d="M2.1,21.1c1.4,9.3,20.4,20.5,20.4,20.5s14.7-16.4,13.3-25.7S25.6,0.1,16.3,1.6	S0.7,11.7,2.1,21.1z" class="st16"/><path id="XMLID_2677_" d="M16.4,37.6c0.4,9.6,19.4,25,17.3,23.2c0,0,16.9-14.1,16.8-23.5s-7.8-17-17.2-16.9	C23.8,20.4,16,28.1,16.4,37.6z" class="st20"/><path id="XMLID_2682_" d="M35,98.6h-2.9c-1.6,0-2.8-1.3-2.8-2.8V94c0-1.6,2.3-4.8,3.8-4.8H34c1.6,0,3.8,3.3,3.8,4.8v1.7	C37.9,97.3,36.6,98.6,35,98.6z" class="st1"/></svg>