<svg xmlns="http://www.w3.org/2000/svg" xmlns:xlink="http://www.w3.org/1999/xlink" id="Layer_1" x="0" y="0" enable-background="new 0 0 220 140" version="1.1" viewBox="0 0 220 140" xml:space="preserve"><style type="text/css">.st0{fill:#efd09e}.st1{fill:#d8ae64}.st5{fill:#2a4758}.st16{fill:#f95a61}</style><g><g id="XMLID_2644_"><polyline id="XMLID_2649_" points="116.6 39 116.6 49 101.4 49 101.4 39" class="st16"/><path id="XMLID_2648_" d="M117.1,54l-5.9,16h-4.3L101,54c0,0,1.9-3.1,8.2-3.1S117.1,54,117.1,54z" class="st16"/><circle id="XMLID_2647_" cx="109" cy="39.5" r="7.6" class="st1"/><path id="XMLID_2645_" d="M101.4,39.5l4.4-4.6c0,0,3.9,4.6,10.7,4.6c0-4.2-3.4-7.6-7.6-7.6 C104.8,31.9,101.4,35.3,101.4,39.5z" class="st16"/></g><path id="XMLID_2643_" d="M148.2,54l5.9,16h4.3l5.9-16c0,0-1.9-3.1-8.2-3.1C149.8,50.9,148.2,54,148.2,54z" class="st5"/><circle id="XMLID_2642_" cx="156.2" cy="39.5" r="7.6" class="st0"/><path id="XMLID_2640_" d="M148.7,39.5l4.4-4.6c0,0,3.9,4.6,10.7,4.6c0-4.2-3.4-7.6-7.6-7.6S148.7,35.3,148.7,39.5z" class="st5"/><circle id="XMLID_2639_" cx="156" cy="29.8" r="3.8" class="st5"/><path id="XMLID_2638_" d="M56.3,54l5.9,16h4.3l5.9-16c0,0-1.9-3.1-8.2-3.1S56.3,54,56.3,54z" class="st5"/><circle id="XMLID_2637_" cx="64.4" cy="39.5" r="7.6" class="st1"/><path id="XMLID_2636_" d="M56.8,39.5l4.4-4.6c0,0,3.9,4.6,10.7,4.6c0-4.2-3.4-7.6-7.6-7.6 C60.2,31.9,56.8,35.3,56.8,39.5z" class="st5"/><polygon id="XMLID_2635_" points="186.3 67.8 201.5 81.4 190.4 77.2 183.8 71.9" class="st1"/><polygon id="XMLID_2634_" points="171 67.8 155.7 81.4 166.9 77.2 173.4 71.9" class="st1"/><polygon id="XMLID_2633_" points="139.8 67.8 155.1 81.4 143.9 77.2 137.4 71.9" class="st1"/><polygon id="XMLID_2632_" points="124.5 67.8 109.3 81.4 120.4 77.2 127 71.9" class="st1"/><polyline id="XMLID_2631_" points="139.3 53 139.3 63 124.1 63 124.1 53" class="st16"/><polyline id="XMLID_2630_" points="186.5 53 186.5 63 171.4 63 171.4 53" class="st5"/><path id="XMLID_2629_" d="M139.8,68l-5.9,16h-4.3l-5.9-16c0,0,1.9-3.1,8.2-3.1C138.2,64.9,139.8,68,139.8,68z" class="st16"/><path id="XMLID_2628_" d="M140.2,86.9l1.1,27.2L132,91h0l-9.4,23l1.1-27.1c0,0,2-4.5,8.2-4.5 C138.2,82.4,140.2,86.9,140.2,86.9z" class="st16"/><circle id="XMLID_2627_" cx="131.7" cy="53.6" r="7.6" class="st1"/><path id="XMLID_2625_" d="M124.1,53.6l4.4-4.6c0,0,3.9,4.6,10.7,4.6c0-4.2-3.4-7.6-7.6-7.6 C127.5,46,124.1,49.4,124.1,53.6z" class="st16"/><g id="XMLID_2616_"><polygon id="XMLID_2624_" points="49 67.8 64.3 81.4 53.1 77.2 46.6 71.9" class="st1"/><polygon id="XMLID_2623_" points="33.7 67.8 18.5 81.4 29.6 77.2 36.2 71.9" class="st1"/><polyline id="XMLID_2622_" points="48.5 53 48.5 63 33.3 63 33.3 53" class="st16"/><path id="XMLID_2621_" d="M49,68l-5.9,16h-4.3l-5.9-16c0,0,1.9-3.1,8.2-3.1S49,68,49,68z" class="st16"/><path id="XMLID_2620_" d="M49.4,86.9l1.1,27.2l-9.4-23h0l-9.4,23l1.1-27.1c0,0,2-4.5,8.2-4.5S49.4,86.9,49.4,86.9z" class="st16"/><circle id="XMLID_2619_" cx="40.9" cy="53.6" r="7.6" class="st1"/><path id="XMLID_2617_" d="M33.3,53.6l4.4-4.6c0,0,3.9,4.6,10.7,4.6c0-4.2-3.4-7.6-7.6-7.6S33.3,49.4,33.3,53.6z" class="st16"/></g><path id="XMLID_2615_" d="M170.9,68l5.9,16h4.3l5.9-16c0,0-1.9-3.1-8.2-3.1C172.5,64.9,170.9,68,170.9,68z" class="st5"/><path id="XMLID_2614_" d="M170.5,86.9l-1.1,27.2l9.4-23h0l9.4,23l-1.1-27.1c0,0-2-4.5-8.2-4.5S170.5,86.9,170.5,86.9z" class="st5"/><circle id="XMLID_2613_" cx="178.9" cy="53.6" r="7.6" class="st1"/><path id="XMLID_2607_" d="M171.4,53.6l4.4-4.6c0,0,3.9,4.6,10.7,4.6c0-4.2-3.4-7.6-7.6-7.6S171.4,49.4,171.4,53.6z" class="st5"/><polygon id="XMLID_2605_" points="94.4 67.8 109.7 81.4 98.5 77.2 92 71.9" class="st0"/><polygon id="XMLID_2583_" points="79.1 67.8 63.9 81.4 75 77.2 81.6 71.9" class="st0"/><path id="XMLID_2560_" d="M79,68l5.9,16h4.3l5.9-16c0,0-1.9-3.1-8.2-3.1S79,68,79,68z" class="st5"/><path id="XMLID_2558_" d="M78.6,86.9L77.5,114l9.4-23h0l9.4,23l-1.1-27.1c0,0-2-4.5-8.2-4.5 C80.6,82.4,78.6,86.9,78.6,86.9z" class="st5"/><circle id="XMLID_2556_" cx="87.1" cy="53.6" r="7.6" class="st0"/><path id="XMLID_2552_" d="M79.5,53.6l4.4-4.6c0,0,3.9,4.6,10.7,4.6c0-4.2-3.4-7.6-7.6-7.6C82.9,46,79.5,49.4,79.5,53.6 z" class="st5"/><circle id="XMLID_2214_" cx="86.8" cy="43.8" r="3.8" class="st5"/></g></svg>