<svg xmlns="http://www.w3.org/2000/svg" xmlns:xlink="http://www.w3.org/1999/xlink" id="Layer_1" x="0" y="0" enable-background="new 0 0 220 140" version="1.1" viewBox="0 0 220 140" xml:space="preserve"><style type="text/css">.st0{fill:#efd09e}.st1,.st43{fill:#d8ae64}.st43{opacity:.6}</style><g id="XMLID_2084_"><path id="XMLID_2541_" d="M131,41.1c0-5.4-7.2-9.6-16-9.6S99,35.7,99,41c0,0.1,0,8,0,8h0v14.5v7v1.2l0,0 c1,4.8,7.9,8.5,16,8.5c8,0,14.9-3.5,16-8.2v-0.2v-1.4v-7V49h0C131,49,131,41.2,131,41.1z" class="st0"/><path id="XMLID_2539_" d="M63,66.5c0,5.4,7.2,9.8,16,9.8s16-4.4,16-9.8v-7c0,5.4-7.2,9.8-16,9.8s-16-4.4-16-9.8" class="st1"/><path id="XMLID_2537_" d="M99,49.5c0,5.4,7.2,9.8,16,9.8s16-4.4,16-9.8v-7c0,5.4-7.2,9.8-16,9.8s-16-4.4-16-9.8" class="st1"/><path id="XMLID_2535_" d="M99,63.5c0,5.4,7.2,9.8,16,9.8s16-4.4,16-9.8v-7c0,5.4-7.2,9.8-16,9.8s-16-4.4-16-9.8" class="st1"/><path id="XMLID_2533_" d="M95,59.1c0-5.4-7.2-9.6-16-9.6S63,53.7,63,59c0,0.1,0,0,0,0h0v14.5v7v1.2l0,0 c1,4.8,7.9,8.5,16,8.5c8,0,14.9-3.5,16-8.2v-0.2v-1.4v-7V59h0C95,59,95,59.2,95,59.1z" class="st0"/><path id="XMLID_2338_" d="M63,80.5c0,5.4,7.2,9.8,16,9.8s16-4.4,16-9.8v-7c0,5.4-7.2,9.8-16,9.8s-16-4.4-16-9.8" class="st1"/><path id="XMLID_2337_" d="M156,87.5c0-5.4-7.2-9.8-16-9.8s-16,4.4-16,9.8v7c0,5.4,7.2,9.8,16,9.8s16-4.4,16-9.8V87.5z" class="st0"/><path id="XMLID_2336_" d="M124,94.5c0,5.4,7.2,9.8,16,9.8s16-4.4,16-9.8v-7c0,5.4-7.2,9.8-16,9.8s-16-4.4-16-9.8" class="st1"/><path id="XMLID_2335_" d="M63,66.5c0,5.4,7.2,9.8,16,9.8s16-4.4,16-9.8v-7c0,5.4-7.2,9.8-16,9.8s-16-4.4-16-9.8" class="st1"/><path id="XMLID_2334_" d="M116,91.5c0-5.4-7.2-9.8-16-9.8s-16,4.4-16,9.8v7c0,5.4,7.2,9.8,16,9.8s16-4.4,16-9.8V91.5z" class="st43"/><path id="XMLID_2333_" d="M116,77.1c0-5.4-7.2-9.6-16-9.6S84,71.7,84,77c0,0.1,0,0,0,0h0v14.5v7v1.2l0,0 c1,4.8,7.9,8.5,16,8.5c8,0,14.9-3.5,16-8.2v-0.2v-1.4v-7V77h0C116,77,116,77.2,116,77.1z" class="st1"/><path id="XMLID_2314_" d="M84,91.5c0,5.4,7.2,9.8,16,9.8s16-4.4,16-9.8v-7c0,5.4-7.2,9.8-16,9.8s-16-4.4-16-9.8" class="st0"/><ellipse id="XMLID_2313_" cx="100" cy="77" class="st0" rx="16" ry="9.2"/></g></svg>