<svg xmlns="http://www.w3.org/2000/svg" xmlns:xlink="http://www.w3.org/1999/xlink" id="Layer_1" x="0" y="0" enable-background="new 0 0 220 140" version="1.1" viewBox="0 0 220 140" xml:space="preserve"><style type="text/css">.st0{fill:#efd09e}.st1{fill:#d8ae64}.st2{fill:#fff}.st5{fill:#2a4758}.st16{fill:#f95a61}.st45,.st82{fill:none;stroke:#2a4758;stroke-width:3;stroke-miterlimit:10}.st82{stroke:#49707f}</style><path d="M132.1,30.8v63.5h44.1V30.8H132.1z M148.7,54.4H139V40.1h9.6V54.4z M169.3,54.4h-9.6V40.1h9.6V54.4z" class="st0"/><path d="M88.1,37.8v63.5h44.1V37.8H88.1z M105,62.6h-9.6V48.3h9.6V62.6z M125.7,62.6H116V48.3h9.6V62.6z" class="st1"/><path d="M44,44.5v63.8h44.1V44.8L44,44.5z M60.5,68.7h-9.6V54.4h9.6V68.7z M81.2,68.7h-9.6V54.4h9.6V68.7z" class="st0"/><rect id="XMLID_2269_" width="10.3" height="30.7" x="105" y="70.4" class="st16"/><rect id="XMLID_2266_" width="10.3" height="30.7" x="149" y="63.4" class="st1"/><polygon id="XMLID_2264_" points="74.7 25.5 88.1 25.5 88.1 30.8 74.7 30.8 76.9 28.1" class="st16"/><rect id="XMLID_2261_" width="10.3" height="27.7" x="60.9" y="78.4" class="st1"/><rect id="XMLID_2252_" width="15.8" height="4.4" x="102.2" y="90.4" class="st5"/><polygon id="XMLID_2246_" points="120.8 97.7 99.5 101.1 99.5 93.8 120.8 93.8" class="st5"/><polygon id="XMLID_2245_" points="32 109.4 179.2 85.5 188 84.8 188 94.2 32 118.5" class="st2"/><polyline id="XMLID_2244_" points="188.1 87.8 110.2 100.1 32.3 112.4" class="st82"/><polyline id="XMLID_2243_" points="188.1 84.8 110.2 97.1 32.3 109.4" class="st45"/><rect id="XMLID_1059_" width="1.8" height="12.3" x="88.1" y="25.5" class="st16"/></svg>