<svg xmlns="http://www.w3.org/2000/svg" xmlns:xlink="http://www.w3.org/1999/xlink" id="Layer_1" x="0" y="0" enable-background="new 0 0 220 140" version="1.1" viewBox="0 0 220 140" xml:space="preserve"><style type="text/css">.st1{fill:#d8ae64}.st16{fill:#f95a61}.st20{fill:#a05258}.st29{fill:none;stroke:#2a4758;stroke-width:5;stroke-miterlimit:10}</style><g><line id="XMLID_2881_" x1="96.4" x2="88.5" y1="82.2" y2="113.7" class="st29"/><line id="XMLID_2880_" x1="122.9" x2="130.6" y1="82.2" y2="113.7" class="st29"/><line id="XMLID_2879_" x1="91.9" x2="126.2" y1="96.4" y2="96.4" class="st29"/><path d="M134.3,74.1l-3.2-4.5c-1-1.9-1.6-4-1.7-6.1l-3.2-30.3c-0.7-4-4.1-6.9-8.2-6.9H102c-4.1,0-7.6,2.9-8.2,6.9 l-3.2,30.5c-0.2,2.2-0.8,4.3-1.8,6.2l-3.1,4.2c-0.3,0.4-0.4,0.9-0.4,1.3c0.4,4,3.7,7.2,7.7,7.2h34c4,0,7.3-3.2,7.7-7.2 C134.7,75,134.6,74.5,134.3,74.1z M102.9,51.9c-0.1,1.3-1.2,2.3-2.5,2.3c-1.3-0.1-2.3-1.2-2.3-2.5l0.5-10.6 c0.1-1.3,1.2-2.3,2.5-2.3l0,0c1.3,0.1,2.3,1.2,2.3,2.5L102.9,51.9z M112.4,52.1c0,1.3-1.1,2.4-2.4,2.4h0c-1.3,0-2.4-1.1-2.4-2.4 V41.5c0-1.3,1.1-2.4,2.4-2.4h0c1.3,0,2.4,1.1,2.4,2.4V52.1z M119.5,54.2c-1.3,0.1-2.4-1-2.5-2.3l-0.5-10.6c-0.1-1.3,1-2.4,2.3-2.5 c1.3-0.1,2.4,1,2.5,2.3l0.5,10.6C121.8,53,120.8,54.1,119.5,54.2z" class="st16"/><path id="XMLID_2659_" d="M81.2,64.9v15.9c0,1,0.2,1.9,0.5,2.8c0.8,2.6,3.5,4.4,6.6,4.4l6.6,0" class="st29"/><path id="XMLID_2188_" d="M129.6,65.5c0.3,1.5,0.8,3,1.5,4.4c0,0-6.7,4.8-20.8,4.8h-0.8c-14.2,0-20.8-4.8-20.8-4.8 c0.7-1.4,1.2-2.9,1.5-4.4" class="st20"/><path id="XMLID_1050_" d="M74.6,59.5v-2.9h70.7v2.9c0,4.3-2,7.8-6.6,7.8H81.1C76.5,67.3,74.6,63.8,74.6,59.5z" class="st1"/></g></svg>